# xmcd
#
# Track frame offsets:
#	150
#	20832
#	41017
#	60333
#	81445
#	101622
#	120235
#	141546
#	160102
#	177443
#	200787
#	220731
#	240735
#	256676
#	276939
#	294342
#	312575
#	329929
#
# Disc length: 4674
#
# Revision: 3
# Processed by: cddbd v1.5.2PL0 Copyright (c) Steve Scherf et al.
# Submitted via: kJams 2 (development) 2.0patch8
#
DISCID=17124012
DTITLE=Various Artist - Zoom Hip–Hop Pop Box CD6
DYEAR=2016
DGENRE=Karaoke
TTITLE0=Sir Mix A Lot - Sir Mix–A–Lot – Baby Got Back
TTITLE1=Sisqo - Sisqo – Thong Song
TTITLE2=Snoop Dogg - Snoop Doggy Dogg – Who Am I (what's my name)
TTITLE3=Streets, The - The Streets – Dry Your Eyes
TTITLE4=Streets, The - The Streets – Fit But You Know It
TTITLE5=Sugarhill Gang, The - Rapper's Delight
TTITLE6=Tinie Tempah - Pass Out
TTITLE7=Tinie Tempah - Not Letting Go (Ft. Jess Glynne)
TTITLE8=Tinie Tempah - Wonderman (Ft. Ellie Goulding)
TTITLE9=Tinie Tempah - Frisky (Ft. Labrinth)
TTITLE10=Usher - Yeah (Ft. Lil Jon and Ludacris)
TTITLE11=Warren G - Regulate (Ft. Nate Dogg)
TTITLE12=Wiley - Heatwave (Ft. Rymez and Ms D)
TTITLE13=Will.i.am - Feelin' Myself (Ft. Miley Cyrus, French Montana and Wiz Khalifa)
TTITLE14=Wiz Khalifa - Black And Yellow
TTITLE15=Wiz Khalifa - See You again (Ft. Charlie Puth)
TTITLE16=Wretch 32 - Traktor (Ft. L Marshall)
TTITLE17=Young MC - Bust A Move
EXTD=
EXTT0=
EXTT1=
EXTT2=
EXTT3=
EXTT4=
EXTT5=
EXTT6=
EXTT7=
EXTT8=
EXTT9=
EXTT10=
EXTT11=
EXTT12=
EXTT13=
EXTT14=
EXTT15=
EXTT16=
EXTT17=
PLAYORDER=
